<?xml version="1.0" encoding="utf-8"?>
<!-- Generator: Adobe Illustrator 22.1.0, SVG Export Plug-In . SVG Version: 6.00 Build 0)  -->
<svg version="1.1" id="Layer_1" xmlns="http://www.w3.org/2000/svg" xmlns:xlink="http://www.w3.org/1999/xlink" x="0px" y="0px"
	 viewBox="0 0 512 512" style="enable-background:new 0 0 512 512;" xml:space="preserve">
<style type="text/css">
	.st0{fill:#A3AAAF;}
	.st1{fill:#DD342E;}
	.st2{fill:#E0E0E0;}
	.st3{fill:#FFFFFF;}
	.st4{fill:#697A84;}
</style>
<path class="st0" d="M344.5,296.1l-62.2,144.3l226.4-190.8l-7.3-3.1c-39.7-17.1-81.2-10-114.4,18l2.2,39.4L344.5,296.1z"/>
<path class="st1" d="M154.7,491.1L154.7,491.1c-49.5-21.3-72.1-78.2-50.7-127.6L229.7,71.6C251,22.2,307.9-0.4,357.3,20.9
	s72.1,78.2,50.7,127.6L282.3,440.4C261,489.8,204.1,512.4,154.7,491.1"/>
<g>
	<path class="st2" d="M226.7,435.6c9.8-22.7-0.4-48.2-23.1-58c-22.7-9.8-48.2,0.4-58,23.1s0.4,48.2,23.1,58
		C191.4,468.5,216.9,458.3,226.7,435.6"/>
	<path class="st2" d="M366.4,111.3c9.8-22.7-0.4-48.2-23.1-58s-48.2,0.4-58,23.1c-9.8,22.7,0.4,48.2,23.1,58
		C331.1,144.2,356.6,134,366.4,111.3"/>
</g>
<path class="st3" d="M323.2,256.1l-32.4-14l14-32.4l-48.6-21l-14,32.4l-32.4-14l-21,48.6l32.4,14l-14,32.4l48.6,21l14-32.4l32.4,14
	L323.2,256.1z"/>
<path class="st0" d="M229.7,71.6l-202,134.1L3.3,262.5l63.6-0.5l110.4-68.7C177.3,193.3,229.4,72.5,229.7,71.6"/>
<path class="st4" d="M27.8,205.7l41.9-28.1l-8.1,45.5L3.3,262.5C3.3,262.5,27.8,205.7,27.8,205.7z"/>
</svg>
